<svg xmlns="http://www.w3.org/2000/svg" viewBox="0 0 980 620" role="img" aria-label="BeaconGuard Assurance architecture v2">
  <rect x="0" y="0" width="980" height="620" fill="#ffffff"/>

  <!-- Upstream Systems -->
  <rect x="290" y="30" width="400" height="70" rx="8" fill="#e5e7eb" stroke="#374151" stroke-width="2"/>
  <text x="490" y="62" text-anchor="middle" font-size="16" fill="#111827">
    Regulated Applications
  </text>
  <text x="490" y="82" text-anchor="middle" font-size="12" fill="#374151">
    EHRs, Clinical Services, Enterprise Systems
  </text>

  <!-- BeaconGuard Boundary -->
  <rect x="90" y="130" width="800" height="330" rx="12" fill="none" stroke="#1f2937" stroke-width="2"/>
  <text x="490" y="160" text-anchor="middle" font-size="18" fill="#1f2937">
    BeaconGuard Assurance
  </text>

  <!-- Control Plane Group -->
  <rect x="120" y="190" width="320" height="200" rx="10" fill="#eef2ff" stroke="#3730a3" stroke-width="2"/>
  <text x="280" y="215" text-anchor="middle" font-size="14" fill="#312e81">
    Policy Control Plane
  </text>

  <rect x="150" y="235" width="260" height="40" rx="6" fill="#ffffff" stroke="#4338ca" stroke-width="1.5"/>
  <text x="280" y="260" text-anchor="middle" font-size="12" fill="#1e1b4b">
    Policy Authoring &amp; Versioning
  </text>

  <rect x="150" y="285" width="260" height="40" rx="6" fill="#ffffff" stroke="#4338ca" stroke-width="1.5"/>
  <text x="280" y="310" text-anchor="middle" font-size="12" fill="#1e1b4b">
    Signed Policy Snapshots
  </text>

  <rect x="150" y="335" width="260" height="40" rx="6" fill="#ffffff" stroke="#4338ca" stroke-width="1.5"/>
  <text x="280" y="360" text-anchor="middle" font-size="12" fill="#1e1b4b">
    Distribution &amp; Attestation
  </text>

  <!-- Enforcement Group -->
  <rect x="520" y="190" width="320" height="200" rx="10" fill="#ecfeff" stroke="#155e75" stroke-width="2"/>
  <text x="680" y="215" text-anchor="middle" font-size="14" fill="#164e63">
    Deterministic Enforcement Runtime
  </text>

  <rect x="550" y="235" width="260" height="40" rx="6" fill="#ffffff" stroke="#0891b2" stroke-width="1.5"/>
  <text x="680" y="260" text-anchor="middle" font-size="12" fill="#083344">
    Request Normalization
  </text>

  <rect x="550" y="285" width="260" height="40" rx="6" fill="#ffffff" stroke="#0891b2" stroke-width="1.5"/>
  <text x="680" y="310" text-anchor="middle" font-size="12" fill="#083344">
    Deterministic Evaluation Engine
  </text>

  <rect x="550" y="335" width="260" height="40" rx="6" fill="#ffffff" stroke="#0891b2" stroke-width="1.5"/>
  <text x="680" y="360" text-anchor="middle" font-size="12" fill="#083344">
    Decision Result Envelope
  </text>

  <!-- Audit Ledger -->
  <rect x="340" y="410" width="300" height="70" rx="8" fill="#fffbeb" stroke="#92400e" stroke-width="2"/>
  <text x="490" y="440" text-anchor="middle" font-size="14" fill="#78350f">
    Append-Only Audit Ledger
  </text>
  <text x="490" y="460" text-anchor="middle" font-size="12" fill="#78350f">
    Policy ID, Inputs, Decision, Provenance
  </text>

  <!-- AI Systems -->
  <rect x="290" y="520" width="400" height="70" rx="8" fill="#ede9fe" stroke="#5b21b6" stroke-width="2"/>
  <text x="490" y="552" text-anchor="middle" font-size="16" fill="#4c1d95">
    AI Models &amp; Inference Services
  </text>
</svg>